<svg width="18" height="19" viewBox="0 0 18 19" fill="none" xmlns="http://www.w3.org/2000/svg">
<g clip-path="url(#clip0_0_223)">
<path d="M8.99922 18.05C8.99922 18.05 2.69922 9.83305 2.69922 6.35005C2.69922 5.52272 2.86217 4.70349 3.17878 3.93914C3.49538 3.17479 3.95944 2.48029 4.54445 1.89528C5.12946 1.31027 5.82396 0.846212 6.58831 0.529608C7.35266 0.213003 8.17189 0.0500488 8.99922 0.0500488C9.82655 0.0500488 10.6458 0.213003 11.4101 0.529608C12.1745 0.846212 12.869 1.31027 13.454 1.89528C14.039 2.48029 14.5031 3.17479 14.8197 3.93914C15.1363 4.70349 15.2992 5.52272 15.2992 6.35005C15.2992 9.83305 8.99922 18.05 8.99922 18.05ZM8.99922 8.15005C9.47661 8.15005 9.93444 7.96041 10.272 7.62284C10.6096 7.28527 10.7992 6.82744 10.7992 6.35005C10.7992 5.87266 10.6096 5.41482 10.272 5.07726C9.93444 4.73969 9.47661 4.55005 8.99922 4.55005C8.52183 4.55005 8.06399 4.73969 7.72643 5.07726C7.38886 5.41482 7.19922 5.87266 7.19922 6.35005C7.19922 6.82744 7.38886 7.28527 7.72643 7.62284C8.06399 7.96041 8.52183 8.15005 8.99922 8.15005Z" fill="url(#paint0_linear_0_223)"/>
</g>
<defs>
<linearGradient id="paint0_linear_0_223" x1="6.20967" y1="1.67862" x2="15.5091" y2="2.7623" gradientUnits="userSpaceOnUse">
<stop stop-color="#EEBA34"/>
<stop offset="0.197917" stop-color="#FFD465"/>
<stop offset="0.338542" stop-color="#FFC42C"/>
<stop offset="0.46875" stop-color="#FFD465"/>
<stop offset="0.723958" stop-color="#EEBA34"/>
<stop offset="0.958333" stop-color="#F8B638"/>
</linearGradient>
<clipPath id="clip0_0_223">
<rect width="18" height="18" fill="white" transform="translate(0 0.0500488)"/>
</clipPath>
</defs>
</svg>
