<svg width="26" height="26" viewBox="0 0 26 26" fill="none" xmlns="http://www.w3.org/2000/svg">
<path fill-rule="evenodd" clip-rule="evenodd" d="M6.02671 1.10942C10.6614 0.595688 15.3387 0.595688 19.9734 1.10942C22.5054 1.39209 24.5467 3.38542 24.844 5.92675C25.3937 10.6263 25.3937 15.3739 24.844 20.0734C24.5467 22.6148 22.5054 24.6081 19.9747 24.8921C15.3396 25.406 10.6618 25.406 6.02671 24.8921C3.49471 24.6081 1.45338 22.6148 1.15605 20.0748C0.60635 15.3748 0.60635 10.6267 1.15605 5.92675C1.45338 3.38542 3.49471 1.39209 6.02671 1.10942ZM19.6667 5.00009C19.3131 5.00009 18.9739 5.14056 18.7239 5.39061C18.4739 5.64066 18.3334 5.9798 18.3334 6.33342C18.3334 6.68704 18.4739 7.02618 18.7239 7.27623C18.9739 7.52628 19.3131 7.66675 19.6667 7.66675C20.0203 7.66675 20.3595 7.52628 20.6095 7.27623C20.8596 7.02618 21 6.68704 21 6.33342C21 5.9798 20.8596 5.64066 20.6095 5.39061C20.3595 5.14056 20.0203 5.00009 19.6667 5.00009ZM6.66671 13.0001C6.66671 11.3204 7.33397 9.70948 8.5217 8.52174C9.70943 7.33401 11.3203 6.66675 13 6.66675C14.6797 6.66675 16.2907 7.33401 17.4784 8.52174C18.6661 9.70948 19.3334 11.3204 19.3334 13.0001C19.3334 14.6798 18.6661 16.2907 17.4784 17.4784C16.2907 18.6662 14.6797 19.3334 13 19.3334C11.3203 19.3334 9.70943 18.6662 8.5217 17.4784C7.33397 16.2907 6.66671 14.6798 6.66671 13.0001Z" fill="white"/>
</svg>
