<svg width="18" height="19" viewBox="0 0 18 19" fill="none" xmlns="http://www.w3.org/2000/svg">
<path d="M17.01 12.4051C15.78 12.4051 14.59 12.2051 13.48 11.8451C13.3061 11.7862 13.1191 11.7775 12.9405 11.8199C12.7618 11.8623 12.5988 11.9543 12.47 12.0851L10.9 14.0551C8.07 12.7051 5.42 10.1551 4.01 7.22515L5.96 5.56515C6.23 5.28515 6.31 4.89515 6.2 4.54515C5.83 3.43515 5.64 2.24515 5.64 1.01515C5.64 0.475146 5.19 0.0251465 4.65 0.0251465H1.19C0.65 0.0251465 0 0.265146 0 1.01515C0 10.3051 7.73 18.0251 17.01 18.0251C17.72 18.0251 18 17.3951 18 16.8451V13.3951C18 12.8551 17.55 12.4051 17.01 12.4051Z" fill="url(#paint0_linear_0_220)"/>
<defs>
<linearGradient id="paint0_linear_0_220" x1="5.01493" y1="1.65372" x2="18.1171" y2="3.8349" gradientUnits="userSpaceOnUse">
<stop stop-color="#EEBA34"/>
<stop offset="0.197917" stop-color="#FFD465"/>
<stop offset="0.338542" stop-color="#FFC42C"/>
<stop offset="0.46875" stop-color="#FFD465"/>
<stop offset="0.723958" stop-color="#EEBA34"/>
<stop offset="0.958333" stop-color="#F8B638"/>
</linearGradient>
</defs>
</svg>
