<svg width="28" height="28" viewBox="0 0 28 28" fill="none" xmlns="http://www.w3.org/2000/svg">
<path d="M14 0.666748C6.63996 0.666748 0.666626 6.64008 0.666626 14.0001C0.666626 21.3601 6.63996 27.3334 14 27.3334C21.36 27.3334 27.3333 21.3601 27.3333 14.0001C27.3333 6.64008 21.36 0.666748 14 0.666748ZM20.1866 9.73341C19.9866 11.8401 19.12 16.9601 18.68 19.3201C18.4933 20.3201 18.12 20.6534 17.7733 20.6934C17 20.7601 16.4133 20.1867 15.6666 19.6934C14.4933 18.9201 13.8266 18.4401 12.6933 17.6934C11.3733 16.8267 12.2266 16.3467 12.9866 15.5734C13.1866 15.3734 16.6 12.2667 16.6666 11.9867C16.6759 11.9443 16.6747 11.9003 16.663 11.8585C16.6514 11.8167 16.6298 11.7783 16.6 11.7467C16.52 11.6801 16.4133 11.7067 16.32 11.7201C16.2 11.7467 14.3333 12.9867 10.6933 15.4401C10.16 15.8001 9.67996 15.9867 9.25329 15.9734C8.77329 15.9601 7.86663 15.7067 7.18663 15.4801C6.34663 15.2134 5.69329 15.0667 5.74663 14.6001C5.77329 14.3601 6.10663 14.1201 6.73329 13.8667C10.6266 12.1734 13.2133 11.0534 14.5066 10.5201C18.2133 8.97341 18.9733 8.70675 19.48 8.70675C19.5866 8.70675 19.84 8.73341 20 8.86675C20.1333 8.97341 20.1733 9.12008 20.1866 9.22675C20.1733 9.30675 20.2 9.54675 20.1866 9.73341Z" fill="white"/>
</svg>
